<svg version="1.2" xmlns="http://www.w3.org/2000/svg" viewBox="0 0 188 49" width="188" height="49">
	<title>devsrsihabLogo-svg</title>
	<defs>
		<clipPath clipPathUnits="userSpaceOnUse" id="cp1">
			<path d="m48.43 3.61h137.57v43.78h-137.57z"/>
		</clipPath>
		<clipPath clipPathUnits="userSpaceOnUse" id="cp2">
			<path d="m80.87 3.61h98.61c2.14 0 4.13 1.16 5.2 3.03 1.06 1.86 1.04 4.16-0.06 6.01l-15.21 25.7c-3.32 5.6-9.35 9.04-15.86 9.04h-98.6c-2.15 0-4.14-1.16-5.2-3.03-1.07-1.86-1.05-4.16 0.05-6.01l15.22-25.7c3.32-5.6 9.34-9.04 15.85-9.04z"/>
		</clipPath>
	</defs>
	<style>
		.s0 { fill: #49b970 } 
		.s1 { fill: #333333 } 
		.s2 { fill: #ffffff } 
	</style>
	<g id="Clip-Path" clip-path="url(#cp1)">
		<g id="Layer">
			<g id="Clip-Path" clip-path="url(#cp2)">
				<g id="Layer">
					<path id="Layer" class="s0" d="m44.4 3.6h145.6v43.8h-145.6z"/>
				</g>
			</g>
		</g>
	</g>
	<g id="Layer">
		<g id="Layer">
			<g id="Layer">
				<path id="Layer" class="s1" d="m12.5 13.9q5.7 0 10.1 2.9l-2.4 5.1q-2.1-1.2-4.4-1.9-2.3-0.8-3.9-0.8-2.8 0-2.8 1.9 0 1.2 1.4 2 1.4 0.7 3.4 1.2 2 0.6 4 1.3 2 0.8 3.4 2.5 1.4 1.7 1.4 4.2 0 3.8-2.9 5.9-2.9 2-7.4 2-3.2 0-6.4-1.1-3.1-1.1-5.4-3l2.5-5q2 1.6 4.6 2.7 2.7 1.1 4.8 1.1 1.5 0 2.4-0.5 0.9-0.6 0.9-1.7 0-1.1-1-1.8-1-0.7-2.5-1.1-1.5-0.3-3.3-0.9-1.8-0.6-3.3-1.3-1.5-0.7-2.5-2.2-1-1.6-1-3.7 0-3.5 2.8-5.7 2.8-2.1 7.5-2.1z"/>
			</g>
		</g>
	</g>
	<g id="Layer">
		<g id="Layer">
			<g id="Layer">
				<path id="Layer" fill-rule="evenodd" class="s1" d="m39.7 40l-3.8-7.3h-5.2v7.3h-6.5v-25.8h11.5q5.1 0 7.9 2.4 2.8 2.3 2.8 6.6 0 6-4.6 8.3l5.4 8.5zm-9-12.4h5q2.1 0 3.3-1.1 1.2-1 1.2-3.1 0-2-1.2-3-1.2-1-3.3-1h-5z"/>
			</g>
		</g>
	</g>
	<g id="Layer">
		<g id="Layer">
			<g id="Layer">
				<path id="Layer" class="s2" d="m77 16q4.8 0 8.5 2.4l-2.1 4.3q-1.7-1-3.6-1.6-2-0.6-3.3-0.6-2.4 0-2.4 1.5 0 1.1 1.2 1.7 1.2 0.6 2.8 1 1.7 0.5 3.4 1.1 1.7 0.7 2.8 2.1 1.2 1.4 1.2 3.6 0 3.1-2.4 4.8-2.4 1.8-6.2 1.8-2.7 0-5.3-1-2.6-0.9-4.6-2.5l2.1-4.2q1.7 1.4 3.9 2.3 2.2 0.9 4 0.9 1.3 0 2-0.5 0.8-0.4 0.8-1.4 0-0.9-0.9-1.5-0.8-0.6-2.1-0.9-1.3-0.3-2.7-0.7-1.5-0.5-2.8-1.1-1.3-0.6-2.1-1.9-0.9-1.3-0.9-3.1 0-2.9 2.4-4.7 2.4-1.8 6.3-1.8z"/>
			</g>
		</g>
	</g>
	<g id="Layer">
		<g id="Layer">
			<g id="Layer">
				<path id="Layer" class="s2" d="m92.3 37.9h-5.5v-21.6h5.5z"/>
			</g>
		</g>
	</g>
	<g id="Layer">
		<g id="Layer">
			<g id="Layer">
				<path id="Layer" class="s2" d="m114.7 37.9h-5.4v-8.4h-9v8.4h-5.5v-21.6h5.5v8.9h9v-8.9h5.4z"/>
			</g>
		</g>
	</g>
	<g id="Layer">
		<g id="Layer">
			<g id="Layer">
				<path id="Layer" fill-rule="evenodd" class="s2" d="m131.7 33.9h-9.5l-1.6 4h-5.6l9.3-21.6h5.7l9.1 21.6h-5.9zm-1.6-4.2l-3.1-8-3.2 8z"/>
			</g>
		</g>
	</g>
	<g id="Layer">
		<g id="Layer">
			<g id="Layer">
				<path id="Layer" fill-rule="evenodd" class="s2" d="m139.3 16.3h10.2q3.7 0 5.8 1.4 2.2 1.5 2.2 4 0 1.7-1 3-1 1.2-2.7 1.7 2 0.4 3.2 1.9 1.2 1.5 1.2 3.6 0 2.7-2.2 4.4-2.3 1.6-6.1 1.6h-10.6zm5.5 4.2v4.4h4.4q1.2 0 1.9-0.6 0.7-0.6 0.7-1.6 0-1-0.7-1.6-0.7-0.6-1.9-0.6zm0 8.4v4.7h4.4q1.6 0.1 2.5-0.6 0.9-0.6 0.9-1.8 0-1.1-0.9-1.7-0.9-0.6-2.5-0.6z"/>
			</g>
		</g>
	</g>
</svg>